<?xml version="1.0" standalone="no"?>
<!DOCTYPE svg PUBLIC "-//W3C//DTD SVG 20010904//EN"
 "http://www.w3.org/TR/2001/REC-SVG-20010904/DTD/svg10.dtd">
<svg version="1.0" xmlns="http://www.w3.org/2000/svg"
 width="497.000000pt" height="499.000000pt" viewBox="0 0 497.000000 499.000000"
 preserveAspectRatio="xMidYMid meet">

<g transform="translate(0.000000,249.000000) scale(0.100000,-0.100000)"
fill="#000000" stroke="none">
<path d="M1944 2384 c-97 -104 -110 -298 -29 -442 l25 -44 -48 -66 c-64 -91
-211 -242 -302 -311 -94 -71 -229 -141 -340 -176 -134 -43 -306 -46 -535 -9
-69 11 -203 53 -257 80 -35 18 -78 18 -78 1 0 -15 63 -45 160 -75 219 -69 517
-88 680 -44 103 28 246 94 343 159 94 62 266 230 342 331 l59 81 36 -35 35
-34 -32 -193 c-45 -268 -50 -345 -29 -402 29 -76 87 -104 141 -69 28 18 108
124 185 244 29 47 66 96 80 110 44 42 126 91 165 97 31 5 41 1 68 -25 42 -40
75 -52 147 -52 109 0 203 37 590 229 151 75 303 149 338 164 37 16 62 32 62
42 0 8 -4 15 -9 15 -19 0 -228 -97 -391 -183 -360 -188 -436 -219 -542 -221
-78 -1 -112 17 -142 78 -42 84 -29 262 25 370 20 39 27 62 20 69 -17 17 -78
-2 -110 -35 -31 -32 -71 -121 -71 -160 0 -74 -283 -550 -388 -651 -34 -33 -40
-36 -52 -22 -19 22 -9 166 26 367 27 160 27 169 11 202 -10 21 -32 44 -54 55
-21 12 -51 31 -66 44 l-28 23 40 70 c101 175 118 356 43 437 -38 40 -68 35
-118 -19z m106 -26 c27 -44 27 -154 1 -229 -22 -65 -83 -189 -92 -189 -4 0
-17 24 -30 53 -20 44 -24 68 -24 157 0 91 3 111 24 150 49 95 87 113 121 58z
m503 -700 l15 -36 -36 -6 c-21 -3 -54 -17 -74 -31 -20 -14 -39 -25 -41 -25 -3
0 21 47 52 104 l56 104 7 -38 c3 -20 13 -53 21 -72z"/>
<path d="M80 895 l0 -755 2400 0 2400 0 0 755 0 755 -695 0 c-457 0 -695 -3
-695 -10 0 -7 235 -10 685 -10 l685 0 0 -735 0 -735 -2380 0 -2380 0 0 735 0
735 739 0 c483 0 742 3 746 10 4 7 -248 10 -749 10 l-756 0 0 -755z"/>
<path d="M255 916 c-14 -14 -25 -30 -25 -36 0 -21 40 -48 93 -64 64 -18 79
-42 47 -68 -33 -27 -58 -22 -97 17 -20 20 -37 34 -39 32 -7 -7 9 -77 17 -77 5
0 9 4 9 9 0 4 17 4 38 -2 49 -13 88 -3 108 29 24 35 7 69 -43 84 -81 25 -93
32 -93 55 0 23 17 35 47 35 9 0 31 -16 50 -36 19 -20 36 -35 38 -33 2 2 0 20
-4 39 -7 35 -8 35 -64 38 -50 3 -60 0 -82 -22z"/>
<path d="M563 929 c14 -8 17 -25 17 -99 0 -74 -3 -91 -17 -99 -14 -8 -6 -10
32 -10 28 1 42 3 33 6 -16 4 -18 18 -18 103 0 85 2 99 18 103 9 3 -5 5 -33 6
-38 0 -46 -2 -32 -10z"/>
<path d="M788 933 c17 -7 17 -199 0 -206 -7 -3 24 -6 70 -6 80 -1 83 0 92 25
6 14 10 30 10 35 0 16 -18 9 -25 -9 -6 -21 -45 -42 -75 -42 -19 0 -20 7 -20
99 0 70 4 101 13 104 6 3 -8 5 -33 5 -25 0 -39 -2 -32 -5z"/>
<path d="M1078 931 c7 -4 30 -52 52 -107 51 -130 62 -130 110 -8 19 50 41 99
49 108 12 14 10 16 -25 16 -27 0 -35 -3 -25 -9 12 -7 9 -23 -15 -90 -16 -44
-31 -77 -35 -73 -3 4 -18 40 -33 81 -21 59 -24 76 -14 83 8 4 -5 8 -32 8 -27
0 -40 -4 -32 -9z"/>
<path d="M1433 929 c25 -15 25 -183 0 -198 -14 -8 -6 -10 32 -10 28 1 42 3 33
6 -16 4 -18 18 -18 103 0 85 2 99 18 103 9 3 -5 5 -33 6 -38 0 -46 -2 -32 -10z"/>
<path d="M1722 923 c-5 -10 -22 -52 -37 -93 -15 -41 -35 -83 -43 -92 -14 -17
-12 -18 24 -18 26 0 34 3 25 9 -9 6 -11 18 -6 40 6 29 10 31 50 31 40 0 44 -2
50 -31 5 -22 3 -34 -6 -40 -9 -6 2 -9 30 -9 41 0 43 1 29 18 -8 9 -30 59 -48
110 -32 91 -50 110 -68 75z m31 -68 l16 -45 -34 0 -34 0 16 45 c8 25 16 45 18
45 2 0 10 -20 18 -45z"/>
<path d="M2162 923 c-5 -10 -22 -52 -37 -93 -15 -41 -35 -83 -43 -92 -14 -17
-12 -18 24 -18 26 0 34 3 25 9 -9 6 -11 18 -6 40 6 29 10 31 50 31 40 0 44 -2
50 -31 5 -22 3 -34 -6 -40 -9 -6 2 -9 30 -9 41 0 43 1 29 18 -8 9 -30 59 -48
110 -32 91 -50 110 -68 75z m31 -68 l16 -45 -34 0 -34 0 16 45 c8 25 16 45 18
45 2 0 10 -20 18 -45z"/>
<path d="M2428 933 c8 -3 12 -34 12 -103 0 -69 -4 -100 -12 -104 -7 -3 25 -4
71 -3 83 2 85 2 94 30 13 40 4 42 -31 7 -18 -18 -41 -30 -56 -30 l-26 0 0 99
c0 70 4 101 13 104 6 3 -8 5 -33 5 -25 0 -39 -2 -32 -5z"/>
<path d="M2733 933 c15 -4 17 -18 17 -103 0 -85 -2 -99 -17 -103 -10 -3 2 -5
27 -5 25 0 39 2 33 5 -9 3 -13 30 -13 86 l1 82 33 -84 c18 -47 37 -86 43 -88
6 -2 23 31 38 74 16 43 32 82 37 87 4 6 8 -24 8 -67 0 -62 -3 -78 -17 -86 -14
-8 -8 -10 27 -10 25 0 39 3 33 6 -9 3 -13 34 -13 103 0 69 4 100 13 103 6 3
-4 6 -24 6 l-36 1 -28 -81 c-15 -44 -31 -77 -35 -72 -3 4 -19 41 -34 81 l-28
72 -41 -1 c-23 -1 -34 -3 -24 -6z"/>
<path d="M3212 923 c-5 -10 -22 -52 -37 -93 -15 -41 -35 -83 -43 -92 -14 -17
-12 -18 24 -18 26 0 34 3 25 9 -9 6 -11 18 -6 40 6 29 10 31 50 31 40 0 44 -2
50 -31 5 -22 3 -34 -6 -40 -9 -6 2 -9 30 -9 41 0 43 1 29 18 -8 9 -30 59 -48
110 -32 91 -50 110 -68 75z m31 -68 l16 -45 -34 0 -34 0 16 45 c8 25 16 45 18
45 2 0 10 -20 18 -45z"/>
<path d="M3478 933 c8 -3 12 -34 12 -103 0 -69 -4 -100 -12 -103 -7 -3 7 -5
32 -5 25 0 39 2 33 5 -8 3 -13 24 -13 54 0 64 14 63 65 -6 30 -41 46 -54 66
-55 25 0 25 1 -18 47 -23 26 -43 50 -43 53 0 3 15 12 33 20 22 11 33 23 35 42
5 43 -28 58 -123 57 -44 0 -74 -3 -67 -6z m140 -15 c7 -7 12 -21 12 -33 0 -31
-19 -45 -62 -45 l-38 0 0 45 0 45 38 0 c21 0 43 -5 50 -12z"/>
<path d="M3884 930 c-36 -14 -64 -59 -64 -102 0 -56 51 -108 107 -108 44 0
103 32 103 56 0 12 -9 8 -35 -15 -39 -34 -52 -37 -88 -20 -52 24 -65 122 -22
164 35 36 68 32 104 -12 25 -30 31 -34 31 -18 -1 53 -9 62 -63 63 -29 0 -62
-3 -73 -8z"/>
<path d="M4178 933 c8 -3 12 -34 12 -103 0 -69 -4 -100 -12 -103 -7 -3 7 -6
32 -6 35 0 41 2 28 10 -13 7 -18 23 -18 54 l0 45 60 0 60 0 0 -49 c0 -39 -4
-51 -17 -54 -10 -3 5 -5 32 -5 28 0 42 2 33 5 -16 4 -18 18 -18 103 0 85 2 99
18 103 9 3 -5 5 -33 6 -38 0 -46 -2 -32 -10 11 -7 17 -22 17 -49 l0 -40 -60 0
-60 0 0 40 c0 27 6 42 18 49 13 8 7 10 -28 10 -25 0 -39 -3 -32 -6z"/>
<path d="M4612 923 c-5 -10 -22 -52 -37 -93 -15 -41 -35 -83 -43 -92 -14 -17
-12 -18 24 -18 26 0 34 3 25 9 -9 6 -11 18 -6 40 6 29 10 31 50 31 40 0 44 -2
50 -31 5 -22 3 -34 -6 -40 -9 -6 2 -9 30 -9 41 0 43 1 29 18 -8 9 -30 59 -48
110 -32 91 -50 110 -68 75z m31 -68 l16 -45 -34 0 -34 0 16 45 c8 25 16 45 18
45 2 0 10 -20 18 -45z"/>
<path d="M778 453 c8 -3 12 -28 12 -73 0 -45 -4 -70 -12 -73 -7 -3 3 -5 22 -5
19 0 29 2 23 5 -7 2 -13 18 -13 34 0 26 3 29 33 29 38 0 57 15 57 45 0 34 -20
45 -79 44 -31 0 -50 -3 -43 -6z m87 -38 c0 -25 -4 -30 -27 -33 -26 -3 -28 -1
-28 33 0 34 2 36 28 33 23 -3 27 -8 27 -33z"/>
<path d="M1058 453 c8 -3 12 -28 12 -73 0 -45 -4 -70 -12 -73 -7 -3 5 -6 27
-6 32 0 36 2 23 10 -21 12 -25 69 -5 69 6 0 25 -18 41 -40 17 -22 38 -40 47
-40 14 0 11 8 -16 37 -34 37 -34 38 -13 46 38 14 47 37 22 61 -11 11 -34 16
-77 15 -34 0 -56 -3 -49 -6z m110 -27 c5 -23 -14 -36 -50 -36 -25 0 -28 4 -28
31 0 29 2 30 37 27 28 -2 39 -8 41 -22z"/>
<path d="M1385 435 c-73 -72 28 -178 109 -114 20 16 26 29 26 59 0 72 -84 106
-135 55z m89 -1 c36 -35 13 -124 -32 -124 -28 0 -52 32 -52 68 0 60 48 92 84
56z"/>
<path d="M1701 434 c-28 -36 -27 -79 4 -110 20 -20 33 -24 75 -23 49 2 50 3
50 35 0 18 6 35 13 37 6 3 -6 5 -28 5 -22 0 -34 -2 -27 -5 6 -2 12 -15 12 -29
0 -32 -43 -44 -70 -19 -26 24 -27 86 -2 108 27 24 47 21 71 -10 18 -25 20 -26
21 -8 0 32 -12 41 -56 44 -35 2 -45 -2 -63 -25z"/>
<path d="M2008 453 c8 -3 12 -28 12 -73 0 -45 -4 -70 -12 -73 -7 -3 5 -6 27
-6 32 0 36 2 23 10 -21 12 -25 69 -5 69 6 0 25 -18 41 -40 17 -22 38 -40 47
-40 14 0 11 8 -16 37 -34 37 -34 38 -13 46 38 14 47 37 22 61 -11 11 -34 16
-77 15 -34 0 -56 -3 -49 -6z m96 -9 c9 -3 16 -14 16 -24 0 -20 -19 -30 -56
-30 -20 0 -24 5 -24 30 0 25 4 30 24 30 13 0 31 -3 40 -6z"/>
<path d="M2359 433 c-6 -15 -17 -46 -25 -67 -8 -22 -19 -45 -25 -53 -9 -10 -6
-13 13 -13 19 0 24 5 23 28 0 22 5 28 28 30 21 3 29 -2 36 -20 5 -15 5 -26 -3
-30 -6 -4 4 -8 23 -8 26 0 31 3 23 13 -6 7 -21 41 -35 77 -27 73 -42 84 -58
43z m30 -33 c9 -28 8 -30 -14 -30 -22 0 -23 2 -14 30 6 17 12 30 14 30 2 0 8
-13 14 -30z"/>
<path d="M2618 454 c8 -4 12 -29 12 -74 0 -45 -4 -70 -12 -73 -7 -3 3 -6 22
-6 22 0 30 2 22 8 -9 5 -12 25 -10 57 l3 49 20 -54 c11 -29 25 -53 30 -52 6 1
20 27 32 59 l22 57 0 -57 c1 -36 -3 -58 -11 -61 -7 -3 3 -5 22 -5 19 0 29 2
23 5 -17 6 -17 125 -1 141 9 9 6 12 -14 12 -22 0 -28 -8 -48 -62 l-23 -62 -22
59 c-19 53 -25 60 -51 62 -16 1 -23 0 -16 -3z"/>
<path d="M3009 433 c-6 -15 -17 -46 -25 -67 -8 -22 -19 -45 -25 -53 -9 -10 -6
-13 13 -13 19 0 24 5 23 28 0 22 5 28 28 30 21 3 29 -2 36 -20 5 -15 5 -26 -3
-30 -6 -4 4 -8 23 -8 26 0 31 3 23 13 -6 7 -21 41 -35 77 -27 73 -42 84 -58
43z m30 -33 c9 -28 8 -30 -14 -30 -22 0 -23 2 -14 30 6 17 12 30 14 30 2 0 8
-13 14 -30z"/>
<path d="M3268 453 c8 -3 12 -28 12 -73 0 -45 -4 -70 -12 -73 -7 -3 15 -6 49
-6 76 -1 103 20 103 80 0 54 -35 79 -109 78 -31 0 -50 -3 -43 -6z m104 -20
c23 -28 28 -51 17 -80 -13 -34 -26 -43 -61 -43 -28 0 -28 0 -28 70 l0 70 28 0
c16 0 36 -8 44 -17z"/>
<path d="M3605 435 c-73 -72 28 -178 109 -114 20 16 26 29 26 59 0 72 -84 106
-135 55z m89 -1 c36 -35 13 -124 -32 -124 -28 0 -52 32 -52 68 0 60 48 92 84
56z"/>
<path d="M3838 453 c8 -3 12 -28 12 -73 0 -45 -4 -70 -12 -73 -7 -3 5 -6 27
-6 32 0 36 2 23 10 -21 12 -25 69 -5 69 6 0 25 -18 41 -40 17 -22 38 -40 47
-40 14 0 11 8 -16 37 -34 37 -34 38 -13 46 38 14 47 37 22 61 -11 11 -34 16
-77 15 -34 0 -56 -3 -49 -6z m100 -12 c8 -5 12 -17 10 -27 -2 -14 -13 -20 -41
-22 -35 -3 -37 -2 -37 27 0 27 3 31 28 31 15 0 33 -4 40 -9z"/>
<path d="M4189 433 c-6 -15 -17 -46 -25 -67 -8 -22 -19 -45 -25 -53 -9 -10 -6
-13 13 -13 19 0 24 5 23 28 0 22 5 28 28 30 21 3 29 -2 36 -20 5 -15 5 -26 -3
-30 -6 -4 4 -8 23 -8 26 0 31 3 23 13 -6 7 -21 41 -35 77 -27 73 -42 84 -58
43z m30 -33 c9 -28 8 -30 -14 -30 -22 0 -23 2 -14 30 6 17 12 30 14 30 2 0 8
-13 14 -30z"/>
</g>
</svg>
